<mxfile host="65bd71144e">
    <diagram id="-AC3i4HqpRu4IHGCe4bp" name="ページ1">
        <mxGraphModel dx="1572" dy="1196" grid="1" gridSize="10" guides="1" tooltips="1" connect="1" arrows="1" fold="1" page="1" pageScale="1" pageWidth="827" pageHeight="1169" math="0" shadow="0">
            <root>
                <mxCell id="0"/>
                <mxCell id="1" parent="0"/>
                <mxCell id="49" value="DMA" style="edgeStyle=none;html=1;entryX=0;entryY=0.5;entryDx=0;entryDy=0;fontSize=24;" parent="1" source="2" target="47" edge="1">
                    <mxGeometry x="0.1581" y="-20" relative="1" as="geometry">
                        <Array as="points">
                            <mxPoint x="154" y="324"/>
                            <mxPoint x="14" y="324"/>
                            <mxPoint x="14" y="104"/>
                        </Array>
                        <mxPoint as="offset"/>
                    </mxGeometry>
                </mxCell>
                <mxCell id="2" value="Data Input Buffer" style="text;html=1;strokeColor=none;fillColor=none;align=center;verticalAlign=middle;whiteSpace=wrap;rounded=0;fontSize=28;" parent="1" vertex="1">
                    <mxGeometry x="14" y="364" width="280" height="40" as="geometry"/>
                </mxCell>
                <mxCell id="11" value="BitBang" style="rounded=0;whiteSpace=wrap;html=1;fillColor=#008a00;strokeColor=#005700;fontColor=#ffffff;fontStyle=1;fontSize=31;" parent="1" vertex="1">
                    <mxGeometry x="14" y="404" width="280" height="40" as="geometry"/>
                </mxCell>
                <mxCell id="12" value="PinData=CS Assert" style="rounded=0;whiteSpace=wrap;html=1;" parent="1" vertex="1">
                    <mxGeometry x="14" y="444" width="280" height="40" as="geometry"/>
                </mxCell>
                <mxCell id="13" value="" style="shape=curlyBracket;whiteSpace=wrap;html=1;rounded=1;flipH=1;labelPosition=right;verticalLabelPosition=middle;align=left;verticalAlign=middle;fontSize=22;strokeWidth=3;" parent="1" vertex="1">
                    <mxGeometry x="308" y="404" width="20" height="80" as="geometry"/>
                </mxCell>
                <mxCell id="14" value="&lt;font style=&quot;font-size: 26px;&quot;&gt;Assert /CS&lt;/font&gt;" style="text;html=1;strokeColor=none;fillColor=none;align=center;verticalAlign=middle;whiteSpace=wrap;rounded=0;fontSize=26;" parent="1" vertex="1">
                    <mxGeometry x="344" y="404" width="150" height="80" as="geometry"/>
                </mxCell>
                <mxCell id="15" value="CmdLatch" style="rounded=0;whiteSpace=wrap;html=1;fillColor=#6a00ff;strokeColor=#3700CC;fontColor=#ffffff;fontStyle=1;fontSize=31;" parent="1" vertex="1">
                    <mxGeometry x="14" y="484" width="280" height="40" as="geometry"/>
                </mxCell>
                <mxCell id="16" value="Data=Read (0x00)" style="rounded=0;whiteSpace=wrap;html=1;" parent="1" vertex="1">
                    <mxGeometry x="14" y="524" width="280" height="40" as="geometry"/>
                </mxCell>
                <mxCell id="17" value="" style="shape=curlyBracket;whiteSpace=wrap;html=1;rounded=1;flipH=1;labelPosition=right;verticalLabelPosition=middle;align=left;verticalAlign=middle;fontSize=22;strokeWidth=3;" parent="1" vertex="1">
                    <mxGeometry x="308" y="484" width="20" height="80" as="geometry"/>
                </mxCell>
                <mxCell id="18" value="&lt;font style=&quot;font-size: 26px;&quot;&gt;Cmd=Read (0x00)&lt;/font&gt;" style="text;html=1;strokeColor=none;fillColor=none;align=center;verticalAlign=middle;whiteSpace=wrap;rounded=0;fontSize=26;" parent="1" vertex="1">
                    <mxGeometry x="344" y="484" width="150" height="80" as="geometry"/>
                </mxCell>
                <mxCell id="19" value="AddrLatch" style="rounded=0;whiteSpace=wrap;html=1;fillColor=#0050ef;strokeColor=#001DBC;fontColor=#ffffff;fontStyle=1;fontSize=31;" parent="1" vertex="1">
                    <mxGeometry x="14" y="564" width="280" height="40" as="geometry"/>
                </mxCell>
                <mxCell id="20" value="Addr=読み出し先 Block/Page/Column" style="rounded=0;whiteSpace=wrap;html=1;" parent="1" vertex="1">
                    <mxGeometry x="14" y="604" width="280" height="40" as="geometry"/>
                </mxCell>
                <mxCell id="21" value="" style="shape=curlyBracket;whiteSpace=wrap;html=1;rounded=1;flipH=1;labelPosition=right;verticalLabelPosition=middle;align=left;verticalAlign=middle;fontSize=22;strokeWidth=3;" parent="1" vertex="1">
                    <mxGeometry x="308" y="564" width="20" height="80" as="geometry"/>
                </mxCell>
                <mxCell id="22" value="&lt;font style=&quot;font-size: 26px;&quot;&gt;読み出し先指定&lt;/font&gt;" style="text;html=1;strokeColor=none;fillColor=none;align=center;verticalAlign=middle;whiteSpace=wrap;rounded=0;fontSize=26;" parent="1" vertex="1">
                    <mxGeometry x="344" y="564" width="150" height="80" as="geometry"/>
                </mxCell>
                <mxCell id="23" value="CmdLatch" style="rounded=0;whiteSpace=wrap;html=1;fillColor=#6a00ff;strokeColor=#3700CC;fontColor=#ffffff;fontStyle=1;fontSize=31;" parent="1" vertex="1">
                    <mxGeometry x="14" y="644" width="280" height="40" as="geometry"/>
                </mxCell>
                <mxCell id="24" value="Data=Read (0x30)" style="rounded=0;whiteSpace=wrap;html=1;" parent="1" vertex="1">
                    <mxGeometry x="14" y="684" width="280" height="40" as="geometry"/>
                </mxCell>
                <mxCell id="25" value="" style="shape=curlyBracket;whiteSpace=wrap;html=1;rounded=1;flipH=1;labelPosition=right;verticalLabelPosition=middle;align=left;verticalAlign=middle;fontSize=22;strokeWidth=3;" parent="1" vertex="1">
                    <mxGeometry x="308" y="644" width="20" height="80" as="geometry"/>
                </mxCell>
                <mxCell id="26" value="&lt;font style=&quot;font-size: 26px;&quot;&gt;Cmd=Read (0x30)&lt;/font&gt;" style="text;html=1;strokeColor=none;fillColor=none;align=center;verticalAlign=middle;whiteSpace=wrap;rounded=0;fontSize=26;" parent="1" vertex="1">
                    <mxGeometry x="344" y="644" width="150" height="80" as="geometry"/>
                </mxCell>
                <mxCell id="27" value="WaitRBB" style="rounded=0;whiteSpace=wrap;html=1;fillColor=#60a917;strokeColor=#2D7600;fontColor=#ffffff;fontStyle=1;fontSize=31;" parent="1" vertex="1">
                    <mxGeometry x="14" y="724" width="280" height="40" as="geometry"/>
                </mxCell>
                <mxCell id="28" value="reserved" style="rounded=0;whiteSpace=wrap;html=1;" parent="1" vertex="1">
                    <mxGeometry x="14" y="764" width="280" height="40" as="geometry"/>
                </mxCell>
                <mxCell id="29" value="" style="shape=curlyBracket;whiteSpace=wrap;html=1;rounded=1;flipH=1;labelPosition=right;verticalLabelPosition=middle;align=left;verticalAlign=middle;fontSize=22;strokeWidth=3;" parent="1" vertex="1">
                    <mxGeometry x="308" y="724" width="20" height="80" as="geometry"/>
                </mxCell>
                <mxCell id="30" value="&lt;font style=&quot;font-size: 26px;&quot;&gt;Busy待ち&lt;/font&gt;" style="text;html=1;strokeColor=none;fillColor=none;align=center;verticalAlign=middle;whiteSpace=wrap;rounded=0;fontSize=26;" parent="1" vertex="1">
                    <mxGeometry x="344" y="724" width="150" height="80" as="geometry"/>
                </mxCell>
                <mxCell id="31" value="DataOut" style="rounded=0;whiteSpace=wrap;html=1;fillColor=#d80073;strokeColor=#A50040;fontColor=#ffffff;fontStyle=1;fontSize=31;" parent="1" vertex="1">
                    <mxGeometry x="14" y="804" width="280" height="40" as="geometry"/>
                </mxCell>
                <mxCell id="32" value="reserved" style="rounded=0;whiteSpace=wrap;html=1;" parent="1" vertex="1">
                    <mxGeometry x="14" y="844" width="280" height="40" as="geometry"/>
                </mxCell>
                <mxCell id="33" value="" style="shape=curlyBracket;whiteSpace=wrap;html=1;rounded=1;flipH=1;labelPosition=right;verticalLabelPosition=middle;align=left;verticalAlign=middle;fontSize=22;strokeWidth=3;" parent="1" vertex="1">
                    <mxGeometry x="308" y="804" width="20" height="80" as="geometry"/>
                </mxCell>
                <mxCell id="34" value="&lt;font style=&quot;font-size: 26px;&quot;&gt;指定回数&lt;br&gt;データ転送&lt;/font&gt;" style="text;html=1;strokeColor=none;fillColor=none;align=center;verticalAlign=middle;whiteSpace=wrap;rounded=0;fontSize=26;" parent="1" vertex="1">
                    <mxGeometry x="344" y="804" width="150" height="80" as="geometry"/>
                </mxCell>
                <mxCell id="35" value="SetIRQ" style="rounded=0;whiteSpace=wrap;html=1;fillColor=#a20025;strokeColor=#6F0000;fontColor=#ffffff;fontStyle=1;fontSize=31;" parent="1" vertex="1">
                    <mxGeometry x="14" y="884" width="280" height="40" as="geometry"/>
                </mxCell>
                <mxCell id="36" value="reserved" style="rounded=0;whiteSpace=wrap;html=1;" parent="1" vertex="1">
                    <mxGeometry x="14" y="924" width="280" height="40" as="geometry"/>
                </mxCell>
                <mxCell id="37" value="" style="shape=curlyBracket;whiteSpace=wrap;html=1;rounded=1;flipH=1;labelPosition=right;verticalLabelPosition=middle;align=left;verticalAlign=middle;fontSize=22;strokeWidth=3;" parent="1" vertex="1">
                    <mxGeometry x="308" y="884" width="20" height="80" as="geometry"/>
                </mxCell>
                <mxCell id="38" value="&lt;font style=&quot;font-size: 26px;&quot;&gt;完了をCPU通知&lt;/font&gt;" style="text;html=1;strokeColor=none;fillColor=none;align=center;verticalAlign=middle;whiteSpace=wrap;rounded=0;fontSize=26;" parent="1" vertex="1">
                    <mxGeometry x="344" y="884" width="150" height="80" as="geometry"/>
                </mxCell>
                <mxCell id="39" value="BitBang" style="rounded=0;whiteSpace=wrap;html=1;fillColor=#008a00;strokeColor=#005700;fontColor=#ffffff;fontStyle=1;fontSize=31;" parent="1" vertex="1">
                    <mxGeometry x="14" y="964" width="280" height="40" as="geometry"/>
                </mxCell>
                <mxCell id="40" value="PinData=CS Deassert" style="rounded=0;whiteSpace=wrap;html=1;" parent="1" vertex="1">
                    <mxGeometry x="14" y="1004" width="280" height="40" as="geometry"/>
                </mxCell>
                <mxCell id="41" value="" style="shape=curlyBracket;whiteSpace=wrap;html=1;rounded=1;flipH=1;labelPosition=right;verticalLabelPosition=middle;align=left;verticalAlign=middle;fontSize=22;strokeWidth=3;" parent="1" vertex="1">
                    <mxGeometry x="308" y="964" width="20" height="80" as="geometry"/>
                </mxCell>
                <mxCell id="42" value="&lt;font style=&quot;font-size: 26px;&quot;&gt;Deassert /CS&lt;/font&gt;" style="text;html=1;strokeColor=none;fillColor=none;align=center;verticalAlign=middle;whiteSpace=wrap;rounded=0;fontSize=26;" parent="1" vertex="1">
                    <mxGeometry x="344" y="964" width="150" height="80" as="geometry"/>
                </mxCell>
                <mxCell id="43" value="Data Output Buffer" style="text;html=1;strokeColor=none;fillColor=none;align=center;verticalAlign=middle;whiteSpace=wrap;rounded=0;fontSize=28;" parent="1" vertex="1">
                    <mxGeometry x="534" y="364" width="280" height="40" as="geometry"/>
                </mxCell>
                <mxCell id="44" value="Read Data[0]" style="rounded=0;whiteSpace=wrap;html=1;fontSize=22;" parent="1" vertex="1">
                    <mxGeometry x="534" y="404" width="280" height="40" as="geometry"/>
                </mxCell>
                <mxCell id="45" value="Read Data[1]" style="rounded=0;whiteSpace=wrap;html=1;fontSize=22;" parent="1" vertex="1">
                    <mxGeometry x="534" y="444" width="280" height="40" as="geometry"/>
                </mxCell>
                <mxCell id="46" value="..." style="rounded=0;whiteSpace=wrap;html=1;" parent="1" vertex="1">
                    <mxGeometry x="534" y="480" width="280" height="600" as="geometry"/>
                </mxCell>
                <mxCell id="52" style="edgeStyle=none;html=1;entryX=-0.022;entryY=0.165;entryDx=0;entryDy=0;entryPerimeter=0;fontSize=18;" parent="1" source="47" target="51" edge="1">
                    <mxGeometry relative="1" as="geometry"/>
                </mxCell>
                <mxCell id="47" value="&lt;font style=&quot;font-size: 18px;&quot;&gt;Input FIFO&lt;/font&gt;" style="rounded=0;whiteSpace=wrap;html=1;fontSize=18;" parent="1" vertex="1">
                    <mxGeometry x="63" y="84" width="280" height="40" as="geometry"/>
                </mxCell>
                <mxCell id="50" style="edgeStyle=none;html=1;entryX=0.5;entryY=0;entryDx=0;entryDy=0;fontSize=24;" parent="1" source="48" target="43" edge="1">
                    <mxGeometry relative="1" as="geometry">
                        <Array as="points">
                            <mxPoint x="44" y="184"/>
                            <mxPoint x="44" y="284"/>
                            <mxPoint x="674" y="284"/>
                            <mxPoint x="674" y="324"/>
                        </Array>
                    </mxGeometry>
                </mxCell>
                <mxCell id="48" value="&lt;font style=&quot;font-size: 18px;&quot;&gt;Output FIFO&lt;/font&gt;" style="rounded=0;whiteSpace=wrap;html=1;fontSize=18;" parent="1" vertex="1">
                    <mxGeometry x="63" y="164" width="280" height="40" as="geometry"/>
                </mxCell>
                <mxCell id="53" style="edgeStyle=none;html=1;entryX=1;entryY=0.5;entryDx=0;entryDy=0;fontSize=18;exitX=0.008;exitY=0.828;exitDx=0;exitDy=0;exitPerimeter=0;" parent="1" source="51" target="48" edge="1">
                    <mxGeometry relative="1" as="geometry"/>
                </mxCell>
                <mxCell id="55" style="edgeStyle=none;html=1;fontSize=18;startArrow=classic;startFill=1;" parent="1" source="51" target="54" edge="1">
                    <mxGeometry relative="1" as="geometry"/>
                </mxCell>
                <mxCell id="51" value="&lt;font style=&quot;font-size: 26px;&quot;&gt;PIO Core&lt;/font&gt;" style="rounded=0;whiteSpace=wrap;html=1;fontSize=26;" parent="1" vertex="1">
                    <mxGeometry x="383" y="84" width="97" height="120" as="geometry"/>
                </mxCell>
                <mxCell id="57" style="edgeStyle=none;html=1;entryX=0;entryY=0.5;entryDx=0;entryDy=0;fontSize=18;startArrow=classic;startFill=1;" parent="1" source="54" target="56" edge="1">
                    <mxGeometry relative="1" as="geometry"/>
                </mxCell>
                <mxCell id="54" value="&lt;font style=&quot;font-size: 26px;&quot;&gt;GPIO&lt;/font&gt;" style="rounded=0;whiteSpace=wrap;html=1;fontSize=26;" parent="1" vertex="1">
                    <mxGeometry x="520" y="84" width="106" height="120" as="geometry"/>
                </mxCell>
                <mxCell id="56" value="&lt;font style=&quot;font-size: 26px;&quot;&gt;NAND IC&lt;/font&gt;" style="rounded=0;whiteSpace=wrap;html=1;fontSize=26;" parent="1" vertex="1">
                    <mxGeometry x="690" y="84" width="110" height="120" as="geometry"/>
                </mxCell>
                <mxCell id="58" value="Hardware" style="text;html=1;strokeColor=none;fillColor=none;align=center;verticalAlign=middle;whiteSpace=wrap;rounded=0;fontSize=28;" parent="1" vertex="1">
                    <mxGeometry x="63" y="44" width="110" height="40" as="geometry"/>
                </mxCell>
                <mxCell id="59" value="Read Data[2]" style="rounded=0;whiteSpace=wrap;html=1;fontSize=22;" vertex="1" parent="1">
                    <mxGeometry x="534" y="480" width="280" height="40" as="geometry"/>
                </mxCell>
            </root>
        </mxGraphModel>
    </diagram>
</mxfile>